<mxfile host="app.diagrams.net" agent="Mozilla/5.0 (Windows NT 10.0; Win64; x64) AppleWebKit/537.36 (KHTML, like Gecko) Chrome/131.0.0.0 Safari/537.36 Edg/131.0.0.0" version="24.9.0">
  <diagram name="Page-1" id="d_ZGyzhkjn85GWD3inb4">
    <mxGraphModel dx="2492" dy="905" grid="1" gridSize="10" guides="1" tooltips="1" connect="1" arrows="1" fold="1" page="1" pageScale="1" pageWidth="850" pageHeight="1100" math="0" shadow="0">
      <root>
        <mxCell id="0" />
        <mxCell id="1" parent="0" />
        <mxCell id="dI2LRLTtc6tyq6Z5hBN9-1" value="" style="edgeStyle=orthogonalEdgeStyle;rounded=0;orthogonalLoop=1;jettySize=auto;html=1;" edge="1" parent="1" source="dI2LRLTtc6tyq6Z5hBN9-2" target="dI2LRLTtc6tyq6Z5hBN9-4">
          <mxGeometry relative="1" as="geometry" />
        </mxCell>
        <mxCell id="dI2LRLTtc6tyq6Z5hBN9-2" value="&lt;font data-font-src=&quot;https://fonts.googleapis.com/css?family=Sarabun&quot; face=&quot;Sarabun&quot;&gt;Start&lt;/font&gt;" style="ellipse;whiteSpace=wrap;html=1;" vertex="1" parent="1">
          <mxGeometry x="-517.7500000000001" y="50" width="130" height="30" as="geometry" />
        </mxCell>
        <mxCell id="dI2LRLTtc6tyq6Z5hBN9-3" value="" style="edgeStyle=orthogonalEdgeStyle;rounded=0;orthogonalLoop=1;jettySize=auto;html=1;" edge="1" parent="1" source="dI2LRLTtc6tyq6Z5hBN9-4">
          <mxGeometry relative="1" as="geometry">
            <mxPoint x="-452.75" y="180" as="targetPoint" />
          </mxGeometry>
        </mxCell>
        <mxCell id="dI2LRLTtc6tyq6Z5hBN9-4" value="กำหนด ตัวแปร input" style="rounded=0;whiteSpace=wrap;html=1;" vertex="1" parent="1">
          <mxGeometry x="-540" y="110" width="174.5" height="40" as="geometry" />
        </mxCell>
        <mxCell id="dI2LRLTtc6tyq6Z5hBN9-21" value="" style="edgeStyle=orthogonalEdgeStyle;rounded=0;orthogonalLoop=1;jettySize=auto;html=1;" edge="1" parent="1" source="dI2LRLTtc6tyq6Z5hBN9-5" target="dI2LRLTtc6tyq6Z5hBN9-20">
          <mxGeometry relative="1" as="geometry" />
        </mxCell>
        <mxCell id="dI2LRLTtc6tyq6Z5hBN9-5" value="กรอกค่าตัวแปร input" style="shape=parallelogram;perimeter=parallelogramPerimeter;whiteSpace=wrap;html=1;fixedSize=1;" vertex="1" parent="1">
          <mxGeometry x="-516.62" y="550" width="127.75" height="40" as="geometry" />
        </mxCell>
        <mxCell id="dI2LRLTtc6tyq6Z5hBN9-6" value="&lt;font face=&quot;Sarabun&quot;&gt;End&lt;/font&gt;" style="ellipse;whiteSpace=wrap;html=1;" vertex="1" parent="1">
          <mxGeometry x="-517.8800000000001" y="830" width="130" height="30" as="geometry" />
        </mxCell>
        <mxCell id="dI2LRLTtc6tyq6Z5hBN9-10" value="" style="edgeStyle=orthogonalEdgeStyle;rounded=0;orthogonalLoop=1;jettySize=auto;html=1;" edge="1" parent="1" source="dI2LRLTtc6tyq6Z5hBN9-8" target="dI2LRLTtc6tyq6Z5hBN9-9">
          <mxGeometry relative="1" as="geometry" />
        </mxCell>
        <mxCell id="dI2LRLTtc6tyq6Z5hBN9-8" value="กำหนด A = 10" style="rounded=0;whiteSpace=wrap;html=1;" vertex="1" parent="1">
          <mxGeometry x="-540" y="180" width="174.5" height="40" as="geometry" />
        </mxCell>
        <mxCell id="dI2LRLTtc6tyq6Z5hBN9-12" value="" style="edgeStyle=orthogonalEdgeStyle;rounded=0;orthogonalLoop=1;jettySize=auto;html=1;" edge="1" parent="1" source="dI2LRLTtc6tyq6Z5hBN9-9" target="dI2LRLTtc6tyq6Z5hBN9-11">
          <mxGeometry relative="1" as="geometry" />
        </mxCell>
        <mxCell id="dI2LRLTtc6tyq6Z5hBN9-9" value="กำหนด B = 11" style="rounded=0;whiteSpace=wrap;html=1;" vertex="1" parent="1">
          <mxGeometry x="-540" y="240" width="174.5" height="40" as="geometry" />
        </mxCell>
        <mxCell id="dI2LRLTtc6tyq6Z5hBN9-14" value="" style="edgeStyle=orthogonalEdgeStyle;rounded=0;orthogonalLoop=1;jettySize=auto;html=1;" edge="1" parent="1" source="dI2LRLTtc6tyq6Z5hBN9-11" target="dI2LRLTtc6tyq6Z5hBN9-13">
          <mxGeometry relative="1" as="geometry" />
        </mxCell>
        <mxCell id="dI2LRLTtc6tyq6Z5hBN9-11" value="กำหนด C = 12" style="rounded=0;whiteSpace=wrap;html=1;" vertex="1" parent="1">
          <mxGeometry x="-540" y="300" width="174.5" height="40" as="geometry" />
        </mxCell>
        <mxCell id="dI2LRLTtc6tyq6Z5hBN9-16" value="" style="edgeStyle=orthogonalEdgeStyle;rounded=0;orthogonalLoop=1;jettySize=auto;html=1;" edge="1" parent="1" source="dI2LRLTtc6tyq6Z5hBN9-13" target="dI2LRLTtc6tyq6Z5hBN9-15">
          <mxGeometry relative="1" as="geometry" />
        </mxCell>
        <mxCell id="dI2LRLTtc6tyq6Z5hBN9-13" value="กำหนด D = 13" style="rounded=0;whiteSpace=wrap;html=1;" vertex="1" parent="1">
          <mxGeometry x="-540" y="360" width="174.5" height="40" as="geometry" />
        </mxCell>
        <mxCell id="dI2LRLTtc6tyq6Z5hBN9-18" value="" style="edgeStyle=orthogonalEdgeStyle;rounded=0;orthogonalLoop=1;jettySize=auto;html=1;" edge="1" parent="1" source="dI2LRLTtc6tyq6Z5hBN9-15" target="dI2LRLTtc6tyq6Z5hBN9-17">
          <mxGeometry relative="1" as="geometry" />
        </mxCell>
        <mxCell id="dI2LRLTtc6tyq6Z5hBN9-15" value="กำหนด D = 14" style="rounded=0;whiteSpace=wrap;html=1;" vertex="1" parent="1">
          <mxGeometry x="-540" y="420" width="174.5" height="40" as="geometry" />
        </mxCell>
        <mxCell id="dI2LRLTtc6tyq6Z5hBN9-19" value="" style="edgeStyle=orthogonalEdgeStyle;rounded=0;orthogonalLoop=1;jettySize=auto;html=1;" edge="1" parent="1" source="dI2LRLTtc6tyq6Z5hBN9-17" target="dI2LRLTtc6tyq6Z5hBN9-5">
          <mxGeometry relative="1" as="geometry" />
        </mxCell>
        <mxCell id="dI2LRLTtc6tyq6Z5hBN9-17" value="กำหนด D = 15" style="rounded=0;whiteSpace=wrap;html=1;" vertex="1" parent="1">
          <mxGeometry x="-540" y="480" width="174.5" height="40" as="geometry" />
        </mxCell>
        <mxCell id="dI2LRLTtc6tyq6Z5hBN9-23" value="" style="edgeStyle=orthogonalEdgeStyle;rounded=0;orthogonalLoop=1;jettySize=auto;html=1;" edge="1" parent="1" source="dI2LRLTtc6tyq6Z5hBN9-20" target="dI2LRLTtc6tyq6Z5hBN9-22">
          <mxGeometry relative="1" as="geometry" />
        </mxCell>
        <mxCell id="dI2LRLTtc6tyq6Z5hBN9-20" value="แปลงเป็นเลขฐาน 10" style="rounded=0;whiteSpace=wrap;html=1;" vertex="1" parent="1">
          <mxGeometry x="-540" y="620" width="174.5" height="40" as="geometry" />
        </mxCell>
        <mxCell id="dI2LRLTtc6tyq6Z5hBN9-25" value="" style="edgeStyle=orthogonalEdgeStyle;rounded=0;orthogonalLoop=1;jettySize=auto;html=1;" edge="1" parent="1" source="dI2LRLTtc6tyq6Z5hBN9-22" target="dI2LRLTtc6tyq6Z5hBN9-24">
          <mxGeometry relative="1" as="geometry" />
        </mxCell>
        <mxCell id="dI2LRLTtc6tyq6Z5hBN9-22" value="แปลงเป็นเลขฐาน 2" style="rounded=0;whiteSpace=wrap;html=1;" vertex="1" parent="1">
          <mxGeometry x="-540" y="690" width="174.5" height="40" as="geometry" />
        </mxCell>
        <mxCell id="dI2LRLTtc6tyq6Z5hBN9-26" value="" style="edgeStyle=orthogonalEdgeStyle;rounded=0;orthogonalLoop=1;jettySize=auto;html=1;" edge="1" parent="1" source="dI2LRLTtc6tyq6Z5hBN9-24" target="dI2LRLTtc6tyq6Z5hBN9-6">
          <mxGeometry relative="1" as="geometry" />
        </mxCell>
        <mxCell id="dI2LRLTtc6tyq6Z5hBN9-24" value="แสดงค่าเลขฐาน 2" style="shape=parallelogram;perimeter=parallelogramPerimeter;whiteSpace=wrap;html=1;fixedSize=1;" vertex="1" parent="1">
          <mxGeometry x="-516.63" y="760" width="127.75" height="40" as="geometry" />
        </mxCell>
      </root>
    </mxGraphModel>
  </diagram>
</mxfile>
